<?xml version="1.0" encoding="utf-8"?>
<!-- Generator: Adobe Illustrator 23.0.1, SVG Export Plug-In . SVG Version: 6.00 Build 0)  -->
<svg version="1.1" id="Layer_1" xmlns="http://www.w3.org/2000/svg" xmlns:xlink="http://www.w3.org/1999/xlink" x="0px" y="0px"
	 viewBox="0 0 300 300" style="enable-background:new 0 0 300 300;" xml:space="preserve">
<g>
	<path d="M277.44,255.56h-57.72V243c16.85-10.24,31.22-24.1,42.05-40.64c13.88-21.2,21.21-45.79,21.21-71.13
		C282.98,58.87,223.33,0,150,0S17.02,58.87,17.02,131.24c0,25.33,7.34,49.93,21.21,71.13c10.83,16.55,25.2,30.4,42.05,40.64v12.56
		H23c-11.72,0-21.87,8.66-22.91,20.19C-1.09,288.94,9.42,300,22.56,300h80.21c12.42,0,22.49-9.95,22.49-22.22v-47.96
		c0-8.59-5.03-16.41-12.91-20.08c-30.66-14.3-50.48-45.11-50.48-78.5c0-47.86,39.53-86.8,88.12-86.8s88.12,38.94,88.12,86.8
		c0,33.39-19.81,64.21-50.48,78.5c-7.88,3.67-12.91,11.49-12.91,20.08v47.96c0,12.27,10.07,22.22,22.49,22.22H277
		c11.72,0,21.87-8.66,22.91-20.19C301.09,266.62,290.58,255.56,277.44,255.56z"/>
	<g>
	</g>
	<g>
	</g>
	<g>
	</g>
	<g>
	</g>
	<g>
	</g>
	<g>
	</g>
	<g>
	</g>
	<g>
	</g>
	<g>
	</g>
	<g>
	</g>
	<g>
	</g>
	<g>
	</g>
	<g>
	</g>
	<g>
	</g>
	<g>
	</g>
</g>
</svg>
